<svg xmlns="http://www.w3.org/2000/svg" viewBox="0 0 48 48" width="48" height="48">
  <path fill="#ff8f00" d="M8,37L23.234,8.436c0.321-0.602,1.189-0.591,1.494,0.02L30,19L8,37z"/>
  <path fill="#ffa000" d="M8,36.992l5.546-34.199c0.145-0.895,1.347-1.089,1.767-0.285L26,22.992L8,36.992z"/>
  <path fill="#ff6f00" d="M8.008,36.986l0.212-0.131l17.571-14.784L20.38,11.92c-0.299-0.561-1.112-0.554-1.402,0.012L8.008,36.986z"/>
  <path fill="#ffc400" d="M23.988,39.983l15.984-9.983l-5.983-10.983c-0.302-0.604-1.186-0.604-1.488,0l-8.513,14.983L8,44l15.988-4.017z"/>
  <path fill="#ffc400" d="M8,44l14.987-4.017l-14.987-3.967z"/>
</svg>
